<?xml version="1.0" encoding="iso-8859-1"?>
<!-- Generator: Adobe Illustrator 16.0.0, SVG Export Plug-In . SVG Version: 6.00 Build 0)  -->
<!DOCTYPE svg PUBLIC "-//W3C//DTD SVG 1.1//EN" "http://www.w3.org/Graphics/SVG/1.1/DTD/svg11.dtd">
<svg version="1.1" id="Capa_1" xmlns="http://www.w3.org/2000/svg" xmlns:xlink="http://www.w3.org/1999/xlink" x="0px" y="0px"
	 width="40px" height="40px" viewBox="0 0 40 40" style="enable-background:new 0 0 40 40;" xml:space="preserve">
<g>
	<path d="M20,0C8.973,0,0,8.973,0,20c0,11.027,8.973,20,20,20c11.029,0,20-8.973,20-20C40,8.973,31.029,0,20,0z M31.824,21.98
		c0,1.346-1.09,2.436-2.434,2.436h-4.977v4.975c0,1.346-1.092,2.436-2.438,2.436h-3.96c-1.346,0-2.436-1.09-2.436-2.436v-4.975
		h-4.975c-1.344,0-2.435-1.09-2.435-2.436v-3.96c0-1.347,1.091-2.437,2.435-2.437h4.975v-4.976c0-1.344,1.09-2.434,2.436-2.434h3.96
		c1.346,0,2.438,1.09,2.438,2.434v4.976h4.977c1.344,0,2.434,1.09,2.434,2.437V21.98z"/>
</g>
</svg>
