<?xml version="1.0" encoding="iso-8859-1"?>
<!-- Generator: Adobe Illustrator 16.0.0, SVG Export Plug-In . SVG Version: 6.00 Build 0)  -->
<!DOCTYPE svg PUBLIC "-//W3C//DTD SVG 1.1//EN" "http://www.w3.org/Graphics/SVG/1.1/DTD/svg11.dtd">
<svg version="1.1" id="Capa_1" xmlns="http://www.w3.org/2000/svg" xmlns:xlink="http://www.w3.org/1999/xlink" x="0px" y="0px"
	 width="38.998px" height="38.998px" viewBox="0 0 38.998 38.998" style="enable-background:new 0 0 38.998 38.998;"
	 xml:space="preserve">
<g>
	<path d="M35.497,15.111h-1.656c-0.282-0.924-0.653-1.807-1.102-2.646l1.176-1.175c1.364-1.366,1.366-3.582,0-4.949l-1.258-1.258
		c-0.656-0.656-1.548-1.025-2.476-1.025l0,0c-0.93,0-1.818,0.369-2.477,1.025l-1.176,1.175c-0.838-0.446-1.721-0.817-2.645-1.102
		V3.501c0-1.934-1.566-3.5-3.5-3.5h-1.778c-1.934,0-3.5,1.566-3.5,3.5v1.655c-0.923,0.282-1.807,0.653-2.645,1.102l-1.174-1.175
		c-1.367-1.367-3.584-1.367-4.951,0L5.081,6.34c-1.367,1.366-1.367,3.583,0,4.949l1.174,1.175c-0.446,0.84-0.818,1.723-1.102,2.646
		H3.5c-1.934,0-3.5,1.566-3.5,3.5v1.778c0,1.932,1.566,3.5,3.5,3.5h1.654c0.283,0.922,0.654,1.807,1.102,2.645l-1.175,1.176
		c-1.366,1.365-1.366,3.582-0.001,4.949l1.258,1.258c0.656,0.654,1.547,1.023,2.475,1.023h0.001c0.929,0,1.818-0.369,2.475-1.023
		l1.176-1.176c0.837,0.447,1.722,0.818,2.644,1.102v1.656c0,1.932,1.566,3.5,3.5,3.5h1.778c1.934,0,3.5-1.568,3.5-3.5v-1.656
		c0.924-0.283,1.807-0.654,2.645-1.102l1.177,1.176c0.655,0.656,1.547,1.023,2.476,1.023c0.93,0,1.817-0.369,2.477-1.023
		l1.256-1.258c1.366-1.367,1.365-3.582,0-4.949l-1.176-1.174c0.447-0.84,0.818-1.725,1.102-2.646h1.656c1.934,0,3.5-1.568,3.5-3.5
		v-1.777C38.997,16.679,37.43,15.111,35.497,15.111z M19.499,27.499c-4.41,0-8-3.588-8-8c0-4.411,3.59-8,8-8c4.412,0,8,3.589,8,8
		C27.499,23.911,23.911,27.499,19.499,27.499z"/>
</g>
</svg>
