<?xml version="1.0" encoding="iso-8859-1"?>
<!DOCTYPE svg PUBLIC "-//W3C//DTD SVG 1.1//EN" "http://www.w3.org/Graphics/SVG/1.1/DTD/svg11.dtd">
<svg xmlns="http://www.w3.org/2000/svg" xmlns:xlink="http://www.w3.org/1999/xlink" version="1.1" id="Capa_1" x="0px" y="0px" width="512px" height="512px" viewBox="0 0 40 40" style="enable-background:new 0 0 40 40;" xml:space="preserve">
<g>
	<path d="M20,0C8.973,0,0,8.973,0,20c0,11.027,8.973,20,20,20c11.029,0,20-8.973,20-20C40,8.973,31.029,0,20,0z M27.316,22.637   c0.711,0.713,0.711,1.867,0,2.579l-2.102,2.101c-0.355,0.355-0.822,0.533-1.291,0.533c-0.467,0-0.934-0.178-1.289-0.533   l-2.637-2.637l-2.638,2.637c-0.354,0.355-0.821,0.533-1.288,0.533c-0.468,0-0.935-0.178-1.291-0.533l-2.099-2.101   c-0.713-0.712-0.713-1.866,0-2.579L15.318,20l-2.635-2.637c-0.713-0.713-0.713-1.867,0-2.579l2.099-2.101   c0.713-0.713,1.868-0.713,2.579,0l2.638,2.637l2.638-2.637c0.713-0.713,1.866-0.713,2.579,0l2.101,2.101   c0.711,0.712,0.711,1.866,0,2.579L24.68,20L27.316,22.637z" fill="#D80027"/>
</g>
</svg>
