<?xml version="1.0" encoding="iso-8859-1"?>
<!-- Generator: Adobe Illustrator 16.0.0, SVG Export Plug-In . SVG Version: 6.00 Build 0)  -->
<!DOCTYPE svg PUBLIC "-//W3C//DTD SVG 1.1//EN" "http://www.w3.org/Graphics/SVG/1.1/DTD/svg11.dtd">
<svg version="1.1" id="Capa_1" xmlns="http://www.w3.org/2000/svg" xmlns:xlink="http://www.w3.org/1999/xlink" x="0px" y="0px"
	 width="32.75px" height="32.75px" viewBox="0 0 32.75 32.75" style="enable-background:new 0 0 32.75 32.75;" xml:space="preserve"
	>
<g>
	<path d="M30.434,15.938c-0.791,0.933-1.917,1.411-3.052,1.411c-0.913,0-1.834-0.312-2.587-0.951l-4.421-3.753V28.75
		c0,2.209-1.791,4-4,4c-2.209,0-4-1.791-4-4V12.646l-4.42,3.754c-1.683,1.431-4.208,1.226-5.639-0.459
		c-1.43-1.684-1.224-4.208,0.46-5.638l11.01-9.351c1.493-1.27,3.686-1.27,5.178,0l11.011,9.351
		C31.658,11.73,31.863,14.255,30.434,15.938z"/>
</g>
</svg>
