<?xml version="1.0" encoding="iso-8859-1"?>
<!-- Generator: Adobe Illustrator 18.0.0, SVG Export Plug-In . SVG Version: 6.00 Build 0)  -->
<!DOCTYPE svg PUBLIC "-//W3C//DTD SVG 1.1//EN" "http://www.w3.org/Graphics/SVG/1.1/DTD/svg11.dtd">
<svg version="1.1" id="Capa_1" xmlns="http://www.w3.org/2000/svg" xmlns:xlink="http://www.w3.org/1999/xlink" x="0px" y="0px"
	 viewBox="0 0 455.731 455.731" style="enable-background:new 0 0 455.731 455.731;" xml:space="preserve">
<g>
	<rect x="0" y="0" style="fill:#DC472E;" width="455.731" height="455.731"/>
	<g>
		<path style="fill:#FFFFFF;" d="M259.401,72.405c30.69,29.93,34.2,81.93-2.39,112.8c-7.23,6.1-14.09,12.65-21.06,19.07
			c-6.785,6.25-8.602,19.263-2.205,27.447c4.622,5.913,27.18,23.639,39.405,33.823c11.607,9.67,20.55,21.6,24.02,36.57
			c7.01,30.22-2.49,55.51-24.72,76.25c-17.15,16.01-38.07,24.9-60.82,29.3c-31.52,6.11-62.85,5.87-93.44-5.34
			c-12.19-4.46-23.23-10.93-32.16-20.47c-22.2-23.68-19.94-55.52-0.75-79.72c13.32-16.79,32.22-25.3,52.38-31.15
			c15.83-4.599,32.011-6.934,48.343-8.354c2.559-0.223,9.567-0.796,11.537-1.006c-12.61-14.73-18.44-30.39-9.53-49.2
			c-7.49,0-14.26,0.28-20.99-0.04c-37.09-1.76-66.16-26.8-71.95-63.04c-4.31-26.96,4.56-50.32,23.02-69.95
			c17.01-18.08,38.52-27.66,62.95-30.36c14.03-1.54,29.14-2.53,42.3-2.53c0,0,84.41-0.11,86.34-0.11l-18.646,16.88h-41.667
			C249.369,63.275,256.931,69.995,259.401,72.405z M138.391,126.535c1.95,19.53,8.67,37.52,21.33,52.9
			c10.7,12.99,23.9,20.12,41.35,18.61c17.51-1.51,34.01-14.99,37.3-31.78c0.24-1.227,0.439-2.461,0.61-3.709
			c1.212-8.822,1.076-17.775-0.107-26.6c-0.327-2.436-0.71-4.889-1.203-7.32c-4.35-21.31-12.71-40.61-29.49-55.32
			c-24.1-21.13-62.88-8.39-68.84,23.06C137.481,106.165,137.401,116.595,138.391,126.535z M145.031,379.675
			c8.85,4.506,18.083,7.27,27.587,8.925c11.524,2.007,23.29,2.17,34.923,0.951c4.695-0.492,21.196-4.541,26.69-7.386
			c37.137-19.23,42.97-51.09,18.08-75.19c-10.198-9.87-25.963-21.669-37.309-30.307l-5.891-0.173c-7.311,0-14.64,0.27-21.92,0.9
			c-16,1.36-31.51,4.73-45.96,12.06c-22.48,11.41-32.89,34.27-25.88,57.53C120.021,362.495,131.081,372.565,145.031,379.675z"/>
		<polygon style="fill:#FFFFFF;" points="397.572,200.566 361.061,200.566 361.061,164.054 337.881,164.054 337.881,200.566 
			301.37,200.566 301.37,223.746 337.881,223.746 337.881,260.257 361.061,260.257 361.061,223.746 397.572,223.746 		"/>
	</g>
</g>
<g>
</g>
<g>
</g>
<g>
</g>
<g>
</g>
<g>
</g>
<g>
</g>
<g>
</g>
<g>
</g>
<g>
</g>
<g>
</g>
<g>
</g>
<g>
</g>
<g>
</g>
<g>
</g>
<g>
</g>
</svg>
