<?xml version="1.0" encoding="iso-8859-1"?>
<!-- Generator: Adobe Illustrator 18.0.0, SVG Export Plug-In . SVG Version: 6.00 Build 0)  -->
<!DOCTYPE svg PUBLIC "-//W3C//DTD SVG 1.1//EN" "http://www.w3.org/Graphics/SVG/1.1/DTD/svg11.dtd">
<svg version="1.1" id="Capa_1" xmlns="http://www.w3.org/2000/svg" xmlns:xlink="http://www.w3.org/1999/xlink" x="0px" y="0px"
	 viewBox="0 0 59.39 59.39" style="enable-background:new 0 0 59.39 59.39;" xml:space="preserve">
<g>
	<g>
		<polygon style="fill:#556080;" points="25,10.704 20,3.704 0,3.704 0,10.704 0,54.704 58,54.704 58,17.704 30,17.704 		"/>
		<polygon style="fill:#3D4451;" points="30,17.704 58,17.704 58,10.704 25,10.704 		"/>
	</g>
	<g>
		<circle style="fill:#D0E8F9;" cx="45.167" cy="40.5" r="9.796"/>
		<path style="fill:#EAF6FD;" d="M48.72,31.379L36.046,44.052c0.706,1.81,1.93,3.357,3.495,4.459l13.638-13.638
			C52.077,33.308,50.53,32.084,48.72,31.379z"/>
		<path style="fill:#B1D3EF;" d="M59.112,53.995l-5.97-6.244c1.746-1.919,2.82-4.458,2.82-7.251c0-5.953-4.843-10.796-10.796-10.796
			S34.371,34.547,34.371,40.5s4.843,10.796,10.796,10.796c2.442,0,4.689-0.824,6.499-2.196l6.001,6.276
			c0.196,0.206,0.459,0.309,0.723,0.309c0.249,0,0.497-0.092,0.691-0.277C59.48,55.027,59.494,54.394,59.112,53.995z M36.371,40.5
			c0-4.85,3.946-8.796,8.796-8.796s8.796,3.946,8.796,8.796s-3.946,8.796-8.796,8.796S36.371,45.35,36.371,40.5z"/>
	</g>
</g>
<g>
</g>
<g>
</g>
<g>
</g>
<g>
</g>
<g>
</g>
<g>
</g>
<g>
</g>
<g>
</g>
<g>
</g>
<g>
</g>
<g>
</g>
<g>
</g>
<g>
</g>
<g>
</g>
<g>
</g>
</svg>
