<?xml version="1.0" encoding="iso-8859-1"?>
<!DOCTYPE svg PUBLIC "-//W3C//DTD SVG 1.1//EN" "http://www.w3.org/Graphics/SVG/1.1/DTD/svg11.dtd">
<svg version="1.1" id="Capa_1" xmlns="http://www.w3.org/2000/svg" xmlns:xlink="http://www.w3.org/1999/xlink" x="0px" y="0px"
	 width="874.8px" height="874.799px" viewBox="0 0 874.8 874.799" style="enable-background:new 0 0 874.8 874.799;"
	 xml:space="preserve">
	<g>
		<path d="M72.7,195.2c-47.5,71.7-72.7,155.2-72.7,241.5C0,495.7,11.6,553,34.4,607c22,52.1,53.6,98.898,93.7,139
			c40.1,40.1,86.9,71.699,139,93.699c54,22.801,111.301,34.4,170.301,34.4s116.3-11.6,170.3-34.4c52.1-22,98.899-53.6,139-93.699
			c40.1-40.102,71.7-86.9,93.7-139C863.2,553,874.8,495.7,874.8,436.699c0-50.399-8.5-99.8-25.3-146.899
			c-16.2-45.5-39.8-87.8-70.1-125.7c-30-37.5-65.601-69.7-106-95.6c-41.101-26.4-86-45.6-133.4-57l-39.8,165.3
			c57.3,13.8,109.3,46.9,146.3,93.4c38.1,47.8,58.3,105.4,58.3,166.699c0,71.4-27.8,138.602-78.3,189.102
			s-117.7,78.299-189.1,78.299C366,704.299,298.8,676.5,248.3,626C197.8,575.5,170,508.299,170,436.899
			C170,384.1,185.3,333.1,214.3,289.3c6.5-9.9,13.7-19.2,21.4-28.1L332.6,386.6L441.5,0.7L35.1,0.8l95.6,124
			C109.2,146.1,89.7,169.6,72.7,195.2z"/>
	</g>
</svg>
