<?xml version="1.0" encoding="UTF-8" standalone="no"?>
<svg
   xmlns:dc="http://purl.org/dc/elements/1.1/"
   xmlns:cc="http://creativecommons.org/ns#"
   xmlns:rdf="http://www.w3.org/1999/02/22-rdf-syntax-ns#"
   xmlns:svg="http://www.w3.org/2000/svg"
   xmlns:xlink="http://www.w3.org/1999/xlink"
   xmlns="http://www.w3.org/2000/svg"
   viewBox="130 -220 566 800"
   id="svg10"
   version="1.1">
  <metadata
     id="metadata16">
    <rdf:RDF>
      <cc:Work
         rdf:about="">
        <dc:format>image/svg+xml</dc:format>
        <dc:type
           rdf:resource="http://purl.org/dc/dcmitype/StillImage" />
      </cc:Work>
    </rdf:RDF>
  </metadata>
  <defs>
  <g id="zirkelaktiv">
    <path
       id="zirkel"
       fill="#E8CAA2"
       d="M 455.1109,19.2713 C 440.7069,29.6144 435.9056,48.8231 301.4691,45.868 186.1577,43.3559 163.8317,99.0607 163.8317,155.2088 c 0,18.3486 10.6762,40.1119 27.4652,53.9784 -21.6349,12.9475 -43.4696,36.4399 -43.4696,73.0936 0,27.0346 11.3888,54.0672 29.8718,75.727 -5.9014,6.9891 -12.5192,13.0592 -19.8799,18.1094 -10.5304,-14.1551 -24.3037,-25.5645 -42.1671,-31.2851 2.1501,-4.6553 3.422,-9.7849 3.3673,-15.2688 -0.1599,-18.5437 -19.0451,-37.3828 -41.6112,-38.4171 -23.7665,-1.1081 -48.0129,24.7495 -48.0129,53.1929 0,30.0688 31.3684,60.8763 67.2182,56.1481 23.2135,-3.0614 42.1571,-9.0479 57.6454,-17.4481 5.4785,8.0884 10.0922,16.9878 13.9076,26.2395 -17.8211,20.8831 -29.9418,46.4482 -29.9418,73.9531 0,11.5251 3.2009,35.462 22.4062,35.462 12.2434,0 28.8079,-11.8208 28.8079,-35.462 0,-17.5561 -3.3012,-46.3397 -13.6278,-73.4514 8.3386,-10.1922 18.0796,-19.629 28.8887,-27.5346 18.087,12.3038 39.238,20.1663 61.56,21.1967 14.724,0.665 38.4103,-10.1214 38.4103,-23.6413 0,-17.731 -20.7255,-23.9368 -38.4103,-23.6412 -18.7966,0.3249 -41.0086,8.1865 -61.6108,21.4158 -7.272,-4.902 -14.2364,-10.8332 -20.4789,-17.9283 29.8843,-33.1813 37.3034,-82.4006 39.8869,-136.6146 1.2535,0.0926 2.5166,0.1448 3.7922,0.1448 7.522,0 22.4062,-2.9551 22.4062,-11.8207 0,-8.8654 -9.8428,-14.7759 -22.4062,-14.7759 -0.8742,0 -1.8368,0.0524 -2.8738,0.155 0.9026,-37.2625 0.8836,-74.7116 12.4764,-109.4958 19.2053,59.1032 28.2476,110.2275 32.0086,171.3994 15.6844,-70.7023 32.0088,-138.8928 64.0176,-180.265 -12.8035,65.0137 -20.5656,99.2196 -25.607,168.4442 -4.3212,59.6203 27.9275,156.6236 99.227,156.6236 32.0086,0 64.0174,-32.5069 64.0174,-62.0584 0,-26.5963 -16.0044,-47.2827 -41.6115,-47.2827 -20.1654,0 -32.0085,21.4251 -32.0085,35.462 0,19.578 3.2009,32.5068 19.2053,32.5068 -12.4835,-8.1266 -12.8036,-20.6861 -12.8036,-32.5068 0,-13.8152 6.4018,-29.5515 25.6068,-29.5515 9.6027,0 35.2097,2.8811 35.2097,41.3722 0,14.7759 -19.2053,56.1481 -57.2955,55.7048 -64.3374,-0.7387 -93.1454,-88.2853 -89.3844,-149.2356 1.4321,-24.4619 8.9595,-147.371 34.2173,-198.1536 41.3499,-0.1891 90.0117,-4.7271 102.86,-30.4283 z M 196.0733,212.7971 c 6.209,4.2798 13.1048,7.4815 20.4976,9.129 -0.8167,55.1772 -12.1808,102.1793 -36.3356,132.9588 -13.5326,-17.4096 -22.8053,-41.0698 -22.8053,-72.6041 0,-24.9471 15.8808,-54.2809 38.6433,-69.4837 z m 20.4406,-14.4569 c -5.8583,1.5426 -12.7397,4.1238 -19.8445,7.8383 -14.3983,-9.3713 -27.6046,-25.4353 -26.4359,-50.9697 3.2009,-70.9237 28.9678,-106.3857 131.2356,-106.3857 11.5574,0 30.0129,0.955 50.2716,0.8796 -19.495,18.3861 -57.0339,65.6555 -79.0795,158.699 C 269.4603,164.0744 243.8535,104.9712 243.8535,63.599 225.7631,80.3004 216.7622,144.0663 216.5139,198.3402 Z M 181.6081,362.395 c 5.9502,6.3967 12.5365,12.2556 19.6384,17.4223 -9.9621,6.7442 -19.4723,14.7396 -27.9493,23.7367 -3.5827,-8.3928 -7.8817,-16.5234 -13.017,-23.9941 8.1023,-5.0224 15.1608,-10.7762 21.3279,-17.1649 z m -72.9116,-19.4539 c -6.9409,-1.5582 -14.4479,-2.2997 -22.5658,-2.0741 -18.3251,0.517 -21.526,10.4167 -21.526,15.2929 0,6.9446 6.4018,14.7756 16.0044,14.7756 9.3832,0 24.6447,-8.5232 32.8201,-21.9379 15.8063,5.9074 28.5401,17.0076 38.5705,30.8084 -15.5977,9.0989 -34.2454,13.9416 -56.1864,13.6627 -35.2097,-0.4434 -60.0165,-22.5332 -60.0165,-49.1296 0,-11.2297 9.6828,-47.2824 41.6114,-47.2824 19.2053,0 35.2094,14.7756 35.2094,32.5066 0,2.2847 -1.2517,7.5628 -3.9211,13.3778 z m 115.63,-125.9461 c 0.1182,-2.852 0.2242,-5.7172 0.3217,-8.5933 0.0641,-1.936 0.1222,-3.8732 0.1761,-5.8116 1.004,-0.0609 2.0117,-0.0986 3.0248,-0.0986 11.2031,0 16.0044,2.9551 16.0044,8.8654 0,5.9102 -6.4018,5.9102 -16.0044,5.9102 -0.9845,0 -2.1722,-0.0885 -3.5226,-0.2721 z m -7.8078,-13.2095 c 0.009,1.4987 0.0241,2.9894 0.0474,4.4685 0.0374,2.3673 0.051,4.7175 0.0504,7.0566 -4.4532,-1.2872 -9.5471,-3.2513 -14.6914,-6.0177 4.6537,-2.478 9.5403,-4.3605 14.5936,-5.5074 z M 106.71,346.8597 c -5.0491,9.0578 -13.4938,18.1001 -25.941,18.3872 -9.1225,0.2217 -9.6024,-7.2402 -9.6024,-8.8653 0,-2.2164 -0.1601,-12.0425 15.8443,-12.0425 7.0061,0 13.5629,0.8879 19.6991,2.5206 z m 64.129,69.3074 c 8.4821,23.2489 12.198,47.9398 12.198,67.0646 0,12.6334 -9.6026,29.5517 -22.4061,29.5517 -12.8036,0 -16.0044,-17.731 -16.0044,-29.5517 0,-20.0512 9.8022,-44.8861 26.2125,-67.0646 z m 37.2733,-36.3487 c 17.2777,-11.872 37.0902,-19.7767 58.1474,-20.7034 6.4015,-0.2216 32.0085,2.9551 32.0085,20.6861 0,8.8654 -12.8035,17.731 -32.0085,17.731 -15.2218,0 -37.6203,-4.9357 -58.1474,-17.7137 z" />
    <g id="ausrufezeichen">
      <path
         id="punkt"
         fill="#E8CAA2"
         d="m 516.0875,393.1732 a 6.2417,5.7626 0 0 1 6.2417,5.7626 6.2417,5.7626 0 1 1 -6.2417,-5.7626 z" />
      <path
         id="linie"
         fill="#E8CAA2"
         d="m 516.0875,327.4209 12.4834,-222.8192 c 0,0 0,-9.2349 -10.0027,-9.2349 -10.0028,0 -10.0028,9.2349 -10.0028,9.2349 z" />
    </g>
  </g>
  </defs>
  <use xlink:href="#zirkelaktiv" transform="rotate(-30)"/>
</svg>
